<svg width="20" height="20" viewBox="0 0 20 20" fill="none" xmlns="http://www.w3.org/2000/svg">
<path d="M9.30182 3.12737C9.66925 2.56682 10.4909 2.56682 10.8583 3.12737C11.1384 3.5546 11.7105 3.6762 12.1401 3.39981C12.7037 3.03717 13.4544 3.37136 13.562 4.0329C13.6441 4.5371 14.1173 4.88089 14.6221 4.80312C15.2846 4.7011 15.8344 5.3117 15.6637 5.95984C15.5335 6.45383 15.826 6.96034 16.3188 7.09466C16.9655 7.27089 17.2194 8.05232 16.7998 8.57499C16.48 8.97335 16.5412 9.55502 16.9368 9.87819C17.4559 10.3022 17.37 11.1194 16.7741 11.4262C16.3199 11.66 16.1392 12.2163 16.3692 12.6724C16.6709 13.2709 16.2601 13.9825 15.5909 14.0204C15.0809 14.0493 14.6895 14.484 14.7141 14.9942C14.7463 15.6637 14.0816 16.1466 13.4549 15.9091C12.9772 15.7281 12.4429 15.966 12.2578 16.4421C12.0149 17.0668 11.2112 17.2376 10.7353 16.7657C10.3725 16.406 9.78764 16.406 9.42489 16.7657C8.94894 17.2376 8.14525 17.0668 7.90239 16.4421C7.71729 15.966 7.18298 15.7281 6.7053 15.9091C6.07856 16.1466 5.41383 15.6637 5.44605 14.9942C5.47061 14.484 5.07926 14.0493 4.56924 14.0204C3.90007 13.9825 3.48925 13.2709 3.79098 12.6724C4.02096 12.2163 3.84022 11.66 3.38606 11.4262C2.79017 11.1194 2.70428 10.3022 3.22335 9.87819C3.61897 9.55502 3.68011 8.97335 3.36033 8.57499C2.94075 8.05232 3.19466 7.27089 3.84132 7.09466C4.33418 6.96034 4.62661 6.45383 4.4965 5.95984C4.32579 5.3117 4.87558 4.7011 5.53802 4.80312C6.0429 4.88089 6.51607 4.5371 6.59813 4.0329C6.7058 3.37136 7.45642 3.03717 8.02008 3.39981C8.44968 3.6762 9.02178 3.5546 9.30182 3.12737Z" fill="#20BCED"/>
<path fill-rule="evenodd" clip-rule="evenodd" d="M14.1563 7.26356C14.4071 7.53309 14.392 7.95493 14.1225 8.20576L9.47448 12.5313C9.03021 12.9448 8.3364 12.9253 7.91606 12.4875L6.01239 10.505C5.75738 10.2394 5.76595 9.81736 6.03153 9.56235C6.29711 9.30734 6.71913 9.31591 6.97414 9.58149L8.72628 11.4062L13.2141 7.22971C13.4836 6.97887 13.9055 6.99403 14.1563 7.26356Z" fill="white"/>
</svg>
