<svg width="24" height="24" viewBox="0 0 24 24" fill="none" xmlns="http://www.w3.org/2000/svg">
<path d="M12 0.625C10.0361 0.624572 8.10562 1.1326 6.39635 2.09963C4.68708 3.06665 3.25728 4.45974 2.24614 6.1433C1.23499 7.82685 0.676944 9.74351 0.62631 11.7067C0.575677 13.6699 1.03418 15.6128 1.9572 17.3463L0.715792 21.0705C0.612963 21.3788 0.59804 21.7097 0.672696 22.026C0.747352 22.3424 0.908637 22.6317 1.13847 22.8615C1.36831 23.0914 1.65761 23.2527 1.97396 23.3273C2.29031 23.402 2.6212 23.387 2.92954 23.2842L6.65376 22.0428C8.17929 22.8542 9.86962 23.3074 11.5964 23.368C13.3233 23.4286 15.0412 23.095 16.6199 22.3925C18.1985 21.69 19.5964 20.6372 20.7074 19.3138C21.8183 17.9904 22.6132 16.4313 23.0317 14.7549C23.4502 13.0784 23.4812 11.3287 23.1225 9.63841C22.7638 7.94817 22.0247 6.36187 20.9614 4.99991C19.898 3.63795 18.5384 2.53613 16.9857 1.77809C15.4329 1.02005 13.7279 0.625709 12 0.625ZM7.18751 13.3125C6.92792 13.3125 6.67416 13.2355 6.45832 13.0913C6.24249 12.9471 6.07426 12.7421 5.97492 12.5023C5.87558 12.2624 5.84959 11.9985 5.90023 11.7439C5.95087 11.4893 6.07588 11.2555 6.25943 11.0719C6.44299 10.8884 6.67685 10.7634 6.93145 10.7127C7.18605 10.6621 7.44995 10.6881 7.68978 10.7874C7.92961 10.8867 8.13459 11.055 8.27881 11.2708C8.42303 11.4867 8.50001 11.7404 8.50001 12C8.50001 12.3481 8.36173 12.6819 8.11559 12.9281C7.86945 13.1742 7.53561 13.3125 7.18751 13.3125ZM12 13.3125C11.7404 13.3125 11.4867 13.2355 11.2708 13.0913C11.055 12.9471 10.8868 12.7421 10.7874 12.5023C10.6881 12.2624 10.6621 11.9985 10.7127 11.7439C10.7634 11.4893 10.8884 11.2555 11.0719 11.0719C11.2555 10.8884 11.4894 10.7634 11.744 10.7127C11.9986 10.6621 12.2625 10.6881 12.5023 10.7874C12.7421 10.8867 12.9471 11.055 13.0913 11.2708C13.2355 11.4867 13.3125 11.7404 13.3125 12C13.3125 12.3481 13.1742 12.6819 12.9281 12.9281C12.6819 13.1742 12.3481 13.3125 12 13.3125ZM16.8125 13.3125C16.5529 13.3125 16.2992 13.2355 16.0833 13.0913C15.8675 12.9471 15.6993 12.7421 15.5999 12.5023C15.5006 12.2624 15.4746 11.9985 15.5252 11.7439C15.5759 11.4893 15.7009 11.2555 15.8844 11.0719C16.068 10.8884 16.3019 10.7634 16.5565 10.7127C16.8111 10.6621 17.075 10.6881 17.3148 10.7874C17.5546 10.8867 17.7596 11.055 17.9038 11.2708C18.048 11.4867 18.125 11.7404 18.125 12C18.125 12.3481 17.9867 12.6819 17.7406 12.9281C17.4944 13.1742 17.1606 13.3125 16.8125 13.3125Z" fill="#2C3E50"/>
</svg>
