<svg width="20" height="19" viewBox="0 0 20 19" fill="none" xmlns="http://www.w3.org/2000/svg">
<path d="M18.25 0.9375H1.75C1.4019 0.9375 1.06806 1.07578 0.821922 1.32192C0.575781 1.56806 0.4375 1.9019 0.4375 2.25V14.25C0.4375 14.5981 0.575781 14.9319 0.821922 15.1781C1.06806 15.4242 1.4019 15.5625 1.75 15.5625H7.52406L8.86 17.9062C8.97474 18.1073 9.14063 18.2745 9.34085 18.3908C9.54106 18.5071 9.76847 18.5683 10 18.5683C10.2315 18.5683 10.4589 18.5071 10.6592 18.3908C10.8594 18.2745 11.0253 18.1073 11.14 17.9062L12.4759 15.5625H18.25C18.5981 15.5625 18.9319 15.4242 19.1781 15.1781C19.4242 14.9319 19.5625 14.5981 19.5625 14.25V2.25C19.5625 1.9019 19.4242 1.56806 19.1781 1.32192C18.9319 1.07578 18.5981 0.9375 18.25 0.9375ZM18.4375 14.25C18.4375 14.2997 18.4177 14.3474 18.3826 14.3826C18.3474 14.4177 18.2997 14.4375 18.25 14.4375H12.1497C12.0507 14.4373 11.9535 14.4632 11.8677 14.5125C11.7819 14.5619 11.7107 14.633 11.6613 14.7187L10.1613 17.3437C10.1449 17.3726 10.1212 17.3966 10.0925 17.4133C10.0639 17.43 10.0313 17.4388 9.99813 17.4388C9.96496 17.4388 9.93238 17.43 9.90373 17.4133C9.87507 17.3966 9.85135 17.3726 9.835 17.3437L8.335 14.7187C8.28552 14.633 8.21431 14.5619 8.12855 14.5125C8.04279 14.4632 7.94552 14.4373 7.84656 14.4375H1.75C1.70027 14.4375 1.65258 14.4177 1.61742 14.3826C1.58225 14.3474 1.5625 14.2997 1.5625 14.25V2.25C1.5625 2.20027 1.58225 2.15258 1.61742 2.11742C1.65258 2.08225 1.70027 2.0625 1.75 2.0625H18.25C18.2997 2.0625 18.3474 2.08225 18.3826 2.11742C18.4177 2.15258 18.4375 2.20027 18.4375 2.25V14.25Z" fill="#2C3E50"/>
</svg>
