<svg width="21" height="12" viewBox="0 0 21 12" fill="none" xmlns="http://www.w3.org/2000/svg">
<path d="M11.3125 0.75V11.25C11.3125 11.3992 11.2532 11.5423 11.1477 11.6477C11.0423 11.7532 10.8992 11.8125 10.75 11.8125C10.6008 11.8125 10.4577 11.7532 10.3523 11.6477C10.2468 11.5423 10.1875 11.3992 10.1875 11.25V0.75C10.1875 0.600816 10.2468 0.457742 10.3523 0.352253C10.4577 0.246764 10.6008 0.1875 10.75 0.1875C10.8992 0.1875 11.0423 0.246764 11.1477 0.352253C11.2532 0.457742 11.3125 0.600816 11.3125 0.75ZM19.75 0.1875H14.5C14.3508 0.1875 14.2077 0.246764 14.1023 0.352253C13.9968 0.457742 13.9375 0.600816 13.9375 0.75V11.25C13.9375 11.3992 13.9968 11.5423 14.1023 11.6477C14.2077 11.7532 14.3508 11.8125 14.5 11.8125C14.6492 11.8125 14.7923 11.7532 14.8977 11.6477C15.0032 11.5423 15.0625 11.3992 15.0625 11.25V6.5625H19C19.1492 6.5625 19.2923 6.50324 19.3977 6.39775C19.5032 6.29226 19.5625 6.14918 19.5625 6C19.5625 5.85082 19.5032 5.70774 19.3977 5.60225C19.2923 5.49676 19.1492 5.4375 19 5.4375H15.0625V1.3125H19.75C19.8992 1.3125 20.0423 1.25324 20.1477 1.14775C20.2532 1.04226 20.3125 0.899184 20.3125 0.75C20.3125 0.600816 20.2532 0.457742 20.1477 0.352253C20.0423 0.246764 19.8992 0.1875 19.75 0.1875ZM7 5.4375H4.75C4.60082 5.4375 4.45774 5.49676 4.35225 5.60225C4.24676 5.70774 4.1875 5.85082 4.1875 6C4.1875 6.14918 4.24676 6.29226 4.35225 6.39775C4.45774 6.50324 4.60082 6.5625 4.75 6.5625H6.4375V8.25C6.4375 8.89647 6.18069 9.51645 5.72357 9.97357C5.26645 10.4307 4.64647 10.6875 4 10.6875C3.35353 10.6875 2.73355 10.4307 2.27643 9.97357C1.81931 9.51645 1.5625 8.89647 1.5625 8.25V3.75C1.5625 3.10353 1.81931 2.48355 2.27643 2.02643C2.73355 1.56931 3.35353 1.3125 4 1.3125C5.13156 1.3125 6.18719 2.09812 6.45531 3.14062C6.47378 3.21215 6.50615 3.27935 6.55059 3.33836C6.59502 3.39738 6.65065 3.44707 6.71428 3.48459C6.77792 3.52211 6.84833 3.54673 6.92148 3.55704C6.99463 3.56735 7.0691 3.56315 7.14062 3.54469C7.21215 3.52622 7.27935 3.49385 7.33836 3.44941C7.39738 3.40498 7.44707 3.34935 7.48459 3.28572C7.52211 3.22208 7.54673 3.15167 7.55704 3.07852C7.56735 3.00537 7.56315 2.9309 7.54469 2.85938C7.14625 1.3125 5.65562 0.1875 4 0.1875C3.05517 0.1875 2.14903 0.562834 1.48093 1.23093C0.812834 1.89903 0.4375 2.80517 0.4375 3.75V8.25C0.4375 9.19483 0.812834 10.101 1.48093 10.7691C2.14903 11.4372 3.05517 11.8125 4 11.8125C4.94483 11.8125 5.85097 11.4372 6.51907 10.7691C7.18717 10.101 7.5625 9.19483 7.5625 8.25V6C7.5625 5.85082 7.50324 5.70774 7.39775 5.60225C7.29226 5.49676 7.14918 5.4375 7 5.4375Z" fill="#2C3E50"/>
</svg>
