<svg width="20" height="20" viewBox="0 0 20 20" fill="none" xmlns="http://www.w3.org/2000/svg">
<path d="M14.6283 2.66501H5.37165C4.34878 2.66501 3.52029 3.4935 3.52029 4.51636V12.6983C3.52029 13.363 3.8767 13.9757 4.45338 14.3053L9.54087 17.2128C9.82503 17.3757 10.175 17.3757 10.4591 17.2128L15.5466 14.3053C16.1233 13.9767 16.4797 13.363 16.4797 12.6983V4.51636C16.4796 3.4935 15.6512 2.66501 14.6283 2.66501Z" fill="#00BA00"/>
<path fill-rule="evenodd" clip-rule="evenodd" d="M14.0758 6.91251C14.3266 7.18204 14.3115 7.60387 14.042 7.85471L9.39397 12.1803C8.94971 12.5937 8.25589 12.5742 7.83556 12.1365L5.93189 10.1539C5.67687 9.88834 5.68544 9.46631 5.95102 9.2113C6.2166 8.95629 6.63862 8.96486 6.89364 9.23044L8.64578 11.0552L13.1336 6.87866C13.4031 6.62782 13.825 6.64298 14.0758 6.91251Z" fill="white"/>
</svg>
