<svg width="18" height="22" viewBox="0 0 18 22" fill="none" xmlns="http://www.w3.org/2000/svg">
<path d="M15.375 7.4375C14.8871 7.43704 14.4104 7.58374 14.0072 7.85844C13.9238 7.47434 13.7487 7.11611 13.4969 6.81429C13.2452 6.51247 12.9241 6.27601 12.5612 6.12508C12.1983 5.97415 11.8042 5.91322 11.4127 5.94748C11.0211 5.98175 10.6437 6.1102 10.3125 6.32187V3.125C10.3125 2.47853 10.0557 1.85855 9.59857 1.40143C9.14145 0.944307 8.52146 0.6875 7.875 0.6875C7.22853 0.6875 6.60854 0.944307 6.15142 1.40143C5.6943 1.85855 5.4375 2.47853 5.4375 3.125V11.2812L4.73156 10.1469C4.40746 9.58743 3.87439 9.17966 3.24963 9.01325C2.62487 8.84684 1.95959 8.93543 1.40015 9.25953C0.840712 9.58363 0.432933 10.1167 0.266524 10.7415C0.100115 11.3662 0.188706 12.0315 0.512809 12.5909L0.950621 13.3644C4.13812 18.9894 5.45718 21.3116 9.75 21.3116C11.8875 21.3091 13.9368 20.4588 15.4483 18.9474C16.9598 17.4359 17.81 15.3866 17.8125 13.2491V9.875C17.8125 9.22853 17.5557 8.60855 17.0986 8.15143C16.6414 7.69431 16.0215 7.4375 15.375 7.4375ZM16.6875 13.25C16.6853 15.0893 15.9536 16.8525 14.6531 18.1531C13.3525 19.4536 11.5892 20.1853 9.75 20.1875C6.1125 20.1875 5.0625 18.3284 1.92937 12.8103L1.48968 12.0312C1.31565 11.73 1.26836 11.372 1.35819 11.0358C1.44802 10.6997 1.66763 10.413 1.96875 10.2387C2.16801 10.1229 2.39449 10.062 2.625 10.0625C2.8558 10.0621 3.08263 10.1225 3.28261 10.2377C3.48259 10.353 3.64866 10.5189 3.76406 10.7188L3.77343 10.7347L5.52468 13.5472C5.58969 13.6499 5.68622 13.7288 5.79983 13.7721C5.91343 13.8153 6.03799 13.8206 6.15486 13.7872C6.27173 13.7537 6.37461 13.6833 6.44809 13.5864C6.52158 13.4896 6.56172 13.3716 6.5625 13.25V3.125C6.5625 2.7769 6.70078 2.44306 6.94692 2.19692C7.19306 1.95078 7.5269 1.8125 7.875 1.8125C8.22309 1.8125 8.55693 1.95078 8.80307 2.19692C9.04922 2.44306 9.1875 2.7769 9.1875 3.125V9.5C9.1875 9.64918 9.24676 9.79226 9.35225 9.89775C9.45774 10.0032 9.60081 10.0625 9.75 10.0625C9.89918 10.0625 10.0423 10.0032 10.1477 9.89775C10.2532 9.79226 10.3125 9.64918 10.3125 9.5V8.375C10.3125 8.0269 10.4508 7.69306 10.6969 7.44692C10.9431 7.20078 11.2769 7.0625 11.625 7.0625C11.9731 7.0625 12.3069 7.20078 12.5531 7.44692C12.7992 7.69306 12.9375 8.0269 12.9375 8.375V10.25C12.9375 10.3992 12.9968 10.5423 13.1022 10.6477C13.2077 10.7532 13.3508 10.8125 13.5 10.8125C13.6492 10.8125 13.7923 10.7532 13.8977 10.6477C14.0032 10.5423 14.0625 10.3992 14.0625 10.25V9.875C14.0625 9.5269 14.2008 9.19306 14.4469 8.94692C14.6931 8.70078 15.0269 8.5625 15.375 8.5625C15.7231 8.5625 16.0569 8.70078 16.3031 8.94692C16.5492 9.19306 16.6875 9.5269 16.6875 9.875V13.25Z" fill="#2C3E50"/>
</svg>
