<svg width="22" height="20" viewBox="0 0 22 20" fill="none" xmlns="http://www.w3.org/2000/svg">
<path d="M21.3031 17.5962L19.9672 6.34625C19.9282 6.02593 19.773 5.73105 19.5311 5.51749C19.2892 5.30392 18.9774 5.18651 18.6547 5.1875H15.3125V5C15.3125 3.85625 14.8581 2.75935 14.0494 1.9506C13.2406 1.14185 12.1437 0.6875 11 0.6875C9.85625 0.6875 8.75935 1.14185 7.9506 1.9506C7.14185 2.75935 6.6875 3.85625 6.6875 5V5.1875H3.34344C3.02075 5.18651 2.70891 5.30392 2.46701 5.51749C2.22511 5.73105 2.06995 6.02593 2.03094 6.34625L0.694999 17.5962C0.673194 17.7811 0.690942 17.9684 0.747066 18.1458C0.803189 18.3233 0.896404 18.4868 1.02053 18.6254C1.14465 18.7641 1.29684 18.8748 1.467 18.9501C1.63716 19.0255 1.8214 19.0638 2.0075 19.0625H19.9925C20.1786 19.0638 20.3628 19.0255 20.533 18.9501C20.7032 18.8748 20.8554 18.7641 20.9795 18.6254C21.1036 18.4868 21.1968 18.3233 21.2529 18.1458C21.3091 17.9684 21.3268 17.7811 21.305 17.5962H21.3031ZM7.8125 5C7.8125 4.15462 8.14832 3.34387 8.7461 2.7461C9.34387 2.14832 10.1546 1.8125 11 1.8125C11.8454 1.8125 12.6561 2.14832 13.2539 2.7461C13.8517 3.34387 14.1875 4.15462 14.1875 5V5.1875H7.8125V5ZM20.1406 17.8719C20.1221 17.8928 20.0993 17.9096 20.0737 17.9209C20.0482 17.9322 20.0205 17.9379 19.9925 17.9375H2.0075C1.97954 17.9379 1.95183 17.9322 1.92626 17.9209C1.90069 17.9096 1.87788 17.8928 1.85937 17.8719C1.84181 17.8527 1.82861 17.83 1.82068 17.8052C1.81275 17.7804 1.81028 17.7542 1.81344 17.7284L3.15031 6.47844C3.15571 6.43155 3.17859 6.38842 3.21439 6.35766C3.25019 6.3269 3.29627 6.31077 3.34344 6.3125H6.6875V8.75C6.6875 8.89918 6.74676 9.04226 6.85225 9.14775C6.95774 9.25324 7.10081 9.3125 7.25 9.3125C7.39918 9.3125 7.54226 9.25324 7.64775 9.14775C7.75324 9.04226 7.8125 8.89918 7.8125 8.75V6.3125H14.1875V8.75C14.1875 8.89918 14.2468 9.04226 14.3523 9.14775C14.4577 9.25324 14.6008 9.3125 14.75 9.3125C14.8992 9.3125 15.0423 9.25324 15.1477 9.14775C15.2532 9.04226 15.3125 8.89918 15.3125 8.75V6.3125H18.6566C18.7037 6.31077 18.7498 6.3269 18.7856 6.35766C18.8214 6.38842 18.8443 6.43155 18.8497 6.47844L20.1866 17.7284C20.1897 17.7542 20.1872 17.7804 20.1793 17.8052C20.1714 17.83 20.1582 17.8527 20.1406 17.8719Z" fill="#2C3E50"/>
</svg>
