<svg width="18" height="18" viewBox="0 0 18 18" fill="none" xmlns="http://www.w3.org/2000/svg">
<path d="M16.5 0.1875H1.5C1.1519 0.1875 0.818064 0.325781 0.571922 0.571922C0.325781 0.818064 0.1875 1.1519 0.1875 1.5V16.5C0.1875 16.8481 0.325781 17.1819 0.571922 17.4281C0.818064 17.6742 1.1519 17.8125 1.5 17.8125H16.5C16.8481 17.8125 17.1819 17.6742 17.4281 17.4281C17.6742 17.1819 17.8125 16.8481 17.8125 16.5V1.5C17.8125 1.1519 17.6742 0.818064 17.4281 0.571922C17.1819 0.325781 16.8481 0.1875 16.5 0.1875ZM1.3125 16.5V1.5C1.3125 1.45027 1.33225 1.40258 1.36742 1.36742C1.40258 1.33225 1.45027 1.3125 1.5 1.3125H16.5C16.5497 1.3125 16.5974 1.33225 16.6326 1.36742C16.6677 1.40258 16.6875 1.45027 16.6875 1.5V9.20625L14.0531 6.57187C13.9312 6.44998 13.7866 6.35329 13.6273 6.28733C13.4681 6.22136 13.2974 6.18741 13.125 6.18741C12.9526 6.18741 12.7819 6.22136 12.6227 6.28733C12.4634 6.35329 12.3188 6.44998 12.1969 6.57187L2.08125 16.6875H1.5C1.45027 16.6875 1.40258 16.6677 1.36742 16.6326C1.33225 16.5974 1.3125 16.5497 1.3125 16.5ZM16.5 16.6875H3.67219L12.9919 7.36781C13.0093 7.35038 13.03 7.33655 13.0527 7.32711C13.0755 7.31768 13.0999 7.31282 13.1245 7.31282C13.1492 7.31282 13.1736 7.31768 13.1963 7.32711C13.2191 7.33655 13.2398 7.35038 13.2572 7.36781L16.6875 10.7972V16.5C16.6875 16.5497 16.6677 16.5974 16.6326 16.6326C16.5974 16.6677 16.5497 16.6875 16.5 16.6875ZM6 8.0625C6.40792 8.0625 6.80669 7.94154 7.14586 7.71491C7.48504 7.48828 7.7494 7.16616 7.9055 6.78928C8.06161 6.41241 8.10245 5.99771 8.02287 5.59763C7.94329 5.19754 7.74685 4.83004 7.45841 4.54159C7.16996 4.25315 6.80246 4.05671 6.40237 3.97713C6.00229 3.89755 5.58759 3.93839 5.21072 4.0945C4.83384 4.2506 4.51172 4.51496 4.28509 4.85414C4.05846 5.19331 3.9375 5.59208 3.9375 6C3.9375 6.54701 4.1548 7.07161 4.54159 7.45841C4.92839 7.8452 5.45299 8.0625 6 8.0625ZM6 5.0625C6.18542 5.0625 6.36668 5.11748 6.52085 5.2205C6.67502 5.32351 6.79518 5.46993 6.86614 5.64123C6.93709 5.81254 6.95566 6.00104 6.91949 6.1829C6.88331 6.36475 6.79402 6.5318 6.66291 6.66291C6.5318 6.79402 6.36475 6.88331 6.1829 6.91949C6.00104 6.95566 5.81254 6.93709 5.64123 6.86614C5.46993 6.79518 5.32351 6.67502 5.2205 6.52085C5.11748 6.36668 5.0625 6.18542 5.0625 6C5.0625 5.75136 5.16127 5.5129 5.33709 5.33709C5.5129 5.16127 5.75136 5.0625 6 5.0625Z" fill="#2C3E50"/>
</svg>
