<svg width="23" height="20" viewBox="0 0 23 20" fill="none" xmlns="http://www.w3.org/2000/svg">
<path d="M4.055 1.24561C3.98914 1.17136 3.90919 1.11093 3.8198 1.06781C3.73041 1.02469 3.63335 0.999744 3.53424 0.994412C3.43514 0.98908 3.33596 1.00347 3.24246 1.03675C3.14896 1.07003 3.06299 1.12154 2.98954 1.18829C2.91609 1.25504 2.85662 1.3357 2.81458 1.4256C2.77253 1.51551 2.74875 1.61286 2.74461 1.71202C2.74046 1.81118 2.75604 1.91018 2.79044 2.00328C2.82484 2.09637 2.87738 2.18172 2.945 2.25436L5.89531 5.49998H2C1.60218 5.49998 1.22064 5.65802 0.93934 5.93932C0.658035 6.22063 0.5 6.60216 0.5 6.99998V13C0.5 13.3978 0.658035 13.7793 0.93934 14.0606C1.22064 14.3419 1.60218 14.5 2 14.5H6.24219L12.7897 19.5915C12.9005 19.6777 13.0332 19.731 13.1728 19.7454C13.3124 19.7599 13.4533 19.7349 13.5793 19.6732C13.7054 19.6116 13.8117 19.5159 13.8861 19.3968C13.9604 19.2778 13.9999 19.1403 14 19V14.4147L17.945 18.7544C18.0109 18.8286 18.0908 18.889 18.1802 18.9322C18.2696 18.9753 18.3667 19.0002 18.4658 19.0056C18.5649 19.0109 18.664 18.9965 18.7575 18.9632C18.851 18.9299 18.937 18.8784 19.0105 18.8117C19.0839 18.7449 19.1434 18.6643 19.1854 18.5744C19.2275 18.4845 19.2513 18.3871 19.2554 18.2879C19.2595 18.1888 19.244 18.0898 19.2096 17.9967C19.1752 17.9036 19.1226 17.8183 19.055 17.7456L4.055 1.24561ZM2 6.99998H5.75V13H2V6.99998ZM12.5 17.4662L7.25 13.3834V6.98967L12.5 12.7647V17.4662ZM16.4375 11.4878C16.7992 11.077 16.9988 10.5483 16.9988 10.0009C16.9988 9.45352 16.7992 8.92489 16.4375 8.51405C16.3686 8.4408 16.3151 8.35445 16.2803 8.26013C16.2454 8.1658 16.2299 8.06543 16.2346 7.96498C16.2393 7.86453 16.2642 7.76605 16.3077 7.67541C16.3512 7.58476 16.4126 7.50379 16.488 7.43733C16.5635 7.37086 16.6515 7.32024 16.747 7.28849C16.8424 7.25674 16.9432 7.2445 17.0434 7.25251C17.1437 7.26051 17.2413 7.28859 17.3305 7.33508C17.4196 7.38156 17.4985 7.44551 17.5625 7.52311C18.1657 8.20793 18.4986 9.08923 18.4986 10.0019C18.4986 10.9145 18.1657 11.7958 17.5625 12.4806C17.4973 12.5545 17.4182 12.6148 17.3297 12.6581C17.2412 12.7014 17.1451 12.7268 17.0467 12.733C16.9484 12.7391 16.8498 12.7258 16.7566 12.6939C16.6634 12.6619 16.5775 12.6119 16.5036 12.5467C16.4297 12.4815 16.3694 12.4024 16.3261 12.3139C16.2828 12.2254 16.2574 12.1293 16.2512 12.0309C16.2451 11.9326 16.2584 11.834 16.2904 11.7408C16.3223 11.6476 16.3723 11.5617 16.4375 11.4878ZM8.9225 4.3628C8.86196 4.28506 8.81734 4.19616 8.79117 4.10117C8.765 4.00618 8.7578 3.90697 8.76999 3.8092C8.78218 3.71143 8.81352 3.61701 8.8622 3.53136C8.91089 3.4457 8.97598 3.37048 9.05375 3.30998L12.7897 0.403733C12.9008 0.317353 13.034 0.263979 13.174 0.249713C13.314 0.235447 13.4552 0.260865 13.5815 0.323061C13.7077 0.385257 13.8139 0.481721 13.8879 0.601426C13.9619 0.721132 14.0008 0.859247 14 0.999984V8.0153C14 8.21421 13.921 8.40497 13.7803 8.54563C13.6397 8.68628 13.4489 8.7653 13.25 8.7653C13.0511 8.7653 12.8603 8.68628 12.7197 8.54563C12.579 8.40497 12.5 8.21421 12.5 8.0153V2.53373L9.97438 4.50248C9.81686 4.62394 9.61755 4.67785 9.42029 4.65235C9.22302 4.62686 9.04397 4.52405 8.9225 4.36655V4.3628ZM22.25 9.99998C22.2511 11.8452 21.5711 13.6258 20.3403 15.0006C20.2067 15.1452 20.0216 15.2314 19.825 15.2407C19.6284 15.25 19.436 15.1817 19.2893 15.0504C19.1426 14.9191 19.0535 14.7354 19.041 14.539C19.0286 14.3425 19.0939 14.149 19.2228 14.0003C20.2066 12.9003 20.7505 11.4762 20.7505 10.0005C20.7505 8.52466 20.2066 7.10063 19.2228 6.00061C19.1553 5.92754 19.103 5.84177 19.0689 5.74828C19.0349 5.6548 19.0197 5.55547 19.0245 5.45609C19.0292 5.3567 19.0536 5.25925 19.0963 5.1694C19.1391 5.07955 19.1993 4.99911 19.2734 4.93275C19.3475 4.86639 19.4341 4.81544 19.5281 4.78288C19.6222 4.75031 19.7217 4.73678 19.821 4.74307C19.9203 4.74935 20.0173 4.77533 20.1065 4.8195C20.1957 4.86366 20.2751 4.92512 20.3403 5.0003C21.5714 6.3745 22.2515 8.155 22.25 9.99998Z" fill="white"/>
</svg>
