<svg width="18" height="14" viewBox="0 0 18 14" fill="none" xmlns="http://www.w3.org/2000/svg">
<path d="M0.1875 1C0.1875 0.850816 0.246763 0.707742 0.352252 0.602252C0.457742 0.496763 0.600816 0.4375 0.75 0.4375H17.25C17.3992 0.4375 17.5423 0.496763 17.6477 0.602252C17.7532 0.707742 17.8125 0.850816 17.8125 1C17.8125 1.14918 17.7532 1.29226 17.6477 1.39775C17.5423 1.50324 17.3992 1.5625 17.25 1.5625H0.75C0.600816 1.5625 0.457742 1.50324 0.352252 1.39775C0.246763 1.29226 0.1875 1.14918 0.1875 1ZM0.75 7.5625H7.5C7.64918 7.5625 7.79226 7.50324 7.89775 7.39775C8.00324 7.29226 8.0625 7.14918 8.0625 7C8.0625 6.85082 8.00324 6.70774 7.89775 6.60225C7.79226 6.49676 7.64918 6.4375 7.5 6.4375H0.75C0.600816 6.4375 0.457742 6.49676 0.352252 6.60225C0.246763 6.70774 0.1875 6.85082 0.1875 7C0.1875 7.14918 0.246763 7.29226 0.352252 7.39775C0.457742 7.50324 0.600816 7.5625 0.75 7.5625ZM13 12.4375H0.75C0.600816 12.4375 0.457742 12.4968 0.352252 12.6023C0.246763 12.7077 0.1875 12.8508 0.1875 13C0.1875 13.1492 0.246763 13.2923 0.352252 13.3977C0.457742 13.5032 0.600816 13.5625 0.75 13.5625H13C13.1492 13.5625 13.2923 13.5032 13.3977 13.3977C13.5032 13.2923 13.5625 13.1492 13.5625 13C13.5625 12.8508 13.5032 12.7077 13.3977 12.6023C13.2923 12.4968 13.1492 12.4375 13 12.4375Z" fill="#2C3E50"/>
</svg>
