<svg width="22" height="14" viewBox="0 0 22 14" fill="none" xmlns="http://www.w3.org/2000/svg">
<path d="M21.3125 1.25V7.25C21.3125 7.39918 21.2532 7.54226 21.1478 7.64775C21.0423 7.75324 20.8992 7.8125 20.75 7.8125C20.6008 7.8125 20.4577 7.75324 20.3523 7.64775C20.2468 7.54226 20.1875 7.39918 20.1875 7.25V2.6075L12.1475 10.6475C12.042 10.7528 11.8991 10.812 11.75 10.812C11.6009 10.812 11.458 10.7528 11.3525 10.6475L8.00001 7.29594L1.64751 13.6475C1.54088 13.7469 1.39984 13.801 1.25411 13.7984C1.10839 13.7958 0.96935 13.7368 0.866291 13.6337C0.763231 13.5307 0.704197 13.3916 0.701626 13.2459C0.699055 13.1002 0.753147 12.9591 0.852507 12.8525L7.60251 6.1025C7.70798 5.99716 7.85094 5.93799 8.00001 5.93799C8.14907 5.93799 8.29204 5.99716 8.39751 6.1025L11.75 9.45406L19.3925 1.8125H14.75C14.6008 1.8125 14.4577 1.75324 14.3523 1.64775C14.2468 1.54226 14.1875 1.39918 14.1875 1.25C14.1875 1.10082 14.2468 0.957742 14.3523 0.852252C14.4577 0.746763 14.6008 0.6875 14.75 0.6875H20.75C20.8992 0.6875 21.0423 0.746763 21.1478 0.852252C21.2532 0.957742 21.3125 1.10082 21.3125 1.25Z" fill="#2C3E50"/>
</svg>
