<svg width="23" height="17" viewBox="0 0 23 17" fill="none" xmlns="http://www.w3.org/2000/svg">
<path d="M22.8125 9.75C22.8125 9.89919 22.7532 10.0423 22.6477 10.1478C22.5422 10.2532 22.3992 10.3125 22.25 10.3125H20.5625V12C20.5625 12.1492 20.5032 12.2923 20.3977 12.3978C20.2922 12.5032 20.1492 12.5625 20 12.5625C19.8508 12.5625 19.7077 12.5032 19.6022 12.3978C19.4968 12.2923 19.4375 12.1492 19.4375 12V10.3125H17.75C17.6008 10.3125 17.4577 10.2532 17.3522 10.1478C17.2468 10.0423 17.1875 9.89919 17.1875 9.75C17.1875 9.60082 17.2468 9.45774 17.3522 9.35225C17.4577 9.24677 17.6008 9.1875 17.75 9.1875H19.4375V7.5C19.4375 7.35082 19.4968 7.20774 19.6022 7.10225C19.7077 6.99677 19.8508 6.9375 20 6.9375C20.1492 6.9375 20.2922 6.99677 20.3977 7.10225C20.5032 7.20774 20.5625 7.35082 20.5625 7.5V9.1875H22.25C22.3992 9.1875 22.5422 9.24677 22.6477 9.35225C22.7532 9.45774 22.8125 9.60082 22.8125 9.75ZM17.4303 15.3881C17.4805 15.4443 17.5188 15.5099 17.5432 15.5812C17.5675 15.6524 17.5773 15.7278 17.5719 15.8029C17.5666 15.878 17.5462 15.9513 17.512 16.0183C17.4778 16.0854 17.4305 16.1449 17.3729 16.1934C17.3153 16.2419 17.2485 16.2783 17.1765 16.3004C17.1046 16.3226 17.0289 16.3301 16.954 16.3225C16.8791 16.3149 16.8065 16.2924 16.7405 16.2562C16.6745 16.22 16.6164 16.1709 16.5697 16.1119C14.6469 13.8234 12.0022 12.5625 9.12499 12.5625C6.2478 12.5625 3.60405 13.8234 1.6803 16.1119C1.58285 16.221 1.44675 16.2878 1.30085 16.2982C1.15495 16.3086 1.01074 16.2618 0.898798 16.1676C0.786854 16.0735 0.715981 15.9394 0.701211 15.7939C0.68644 15.6484 0.728933 15.5028 0.819678 15.3881C2.29437 13.6322 4.15624 12.42 6.21874 11.8359C5.00005 11.1876 4.03318 10.1502 3.47195 8.88904C2.91071 7.62784 2.78735 6.21518 3.12148 4.87579C3.45561 3.53639 4.22804 2.3472 5.3159 1.49738C6.40375 0.647569 7.74455 0.185944 9.12499 0.185944C10.5054 0.185944 11.8462 0.647569 12.9341 1.49738C14.0219 2.3472 14.7944 3.53639 15.1285 4.87579C15.4626 6.21518 15.3393 7.62784 14.778 8.88904C14.2168 10.1502 13.2499 11.1876 12.0312 11.8359C14.0937 12.42 15.9556 13.6322 17.4303 15.3881ZM9.12499 11.4375C10.1263 11.4375 11.105 11.1406 11.9376 10.5843C12.7701 10.028 13.419 9.23739 13.8021 8.31234C14.1853 7.38729 14.2856 6.36939 14.0902 5.38736C13.8949 4.40533 13.4127 3.50328 12.7047 2.79527C11.9967 2.08727 11.0947 1.60511 10.1126 1.40978C9.13061 1.21444 8.11271 1.31469 7.18766 1.69786C6.26261 2.08103 5.47195 2.7299 4.91568 3.56243C4.3594 4.39495 4.06249 5.37373 4.06249 6.375C4.06398 7.7172 4.59783 9.00401 5.54691 9.95309C6.49599 10.9022 7.78279 11.436 9.12499 11.4375Z" fill="#2C3E50"/>
</svg>
